# xmcd
#
# Track frame offsets: 
#        150
#        20874
#        35709
#        61547
#        79903
#        98196
#        120111
#        142006
#        163913
#        181463
#        201284
#        221036
#        244887
#        265712
#        288760
#        305850
#
# Disc length: 4332 seconds
#
# Revision: 1
# Processed by: cddbd v1.5.2PL0 Copyright (c) Steve Scherf et al.
# Submitted via: ExactAudioCopy v1.0b3
#
DISCID=ee10ea10
DTITLE=蘇芮 - 牽手
DYEAR=2010
DGENRE=CPop
TTITLE0=心痛的感覺
TTITLE1=明天還要繼續
TTITLE2=牽手
TTITLE3=跟著感覺走
TTITLE4=是不是這樣
TTITLE5=奉獻
TTITLE6=風雨情懷
TTITLE7=我曾心愛過
TTITLE8=愛到天長地久
TTITLE9=愛的完結編
TTITLE10=親愛的小孩
TTITLE11=沉默的母親
TTITLE12=誰的溫柔改變
TTITLE13=內心交戰
TTITLE14=順其自然
TTITLE15=迷失
EXTD=
EXTT0=
EXTT1=
EXTT2=
EXTT3=
EXTT4=
EXTT5=
EXTT6=
EXTT7=
EXTT8=
EXTT9=
EXTT10=
EXTT11=
EXTT12=
EXTT13=
EXTT14=
EXTT15=
PLAYORDER=
